<svg width="96" height="74" viewBox="0 0 96 74" fill="none" xmlns="http://www.w3.org/2000/svg">
<path d="M29.946 48.53C29.946 52.7047 28.6647 55.784 26.102 57.768C23.5807 59.7107 20.5427 60.682 16.988 60.682C14.756 60.682 12.648 60.2893 10.664 59.504C8.68 58.6773 7.04733 57.3547 5.766 55.536C4.526 53.7173 3.906 51.382 3.906 48.53V28.566C3.906 24.3087 5.06333 21.0847 7.378 18.894C9.734 16.7033 12.958 15.608 17.05 15.608C21.142 15.608 24.304 16.7653 26.536 19.08C28.8093 21.3947 29.946 24.5773 29.946 28.628V48.53ZM23.126 30.86C23.126 29.124 22.9813 27.698 22.692 26.582C22.4027 25.466 21.8033 24.598 20.894 23.978C19.9847 23.3167 18.662 22.986 16.926 22.986C15.19 22.986 13.8673 23.296 12.958 23.916C12.0487 24.536 11.4493 25.404 11.16 26.52C10.8707 27.5947 10.726 29.0207 10.726 30.798V47.352C10.726 49.336 11.222 50.9067 12.214 52.064C13.2473 53.18 14.818 53.738 16.926 53.738C18.8687 53.738 20.3773 53.1387 21.452 51.94C22.568 50.7413 23.126 49.1707 23.126 47.228V30.86ZM38.8633 16.538H50.5193C55.19 16.538 58.7447 17.8193 61.1833 20.382C63.6633 22.9447 64.9033 26.3547 64.9033 30.612V47.6C64.9033 55.8667 60.522 60 51.7593 60H38.8633V16.538ZM58.0833 29.992C58.0833 27.7187 57.5047 26.0653 56.3473 25.032C55.2313 23.9573 53.4953 23.42 51.1393 23.42H45.6833V53.738H50.7673C52.9993 53.738 54.7767 53.4073 56.0993 52.746C57.422 52.0433 58.0833 50.5347 58.0833 48.22V29.992ZM71.6192 16.6H92.3272V23.42H78.4392V34.394H86.9332L85.0112 40.904H78.4392V53.8H92.2032V60H71.6192V16.6Z" fill="white"/>
<rect y="66" width="96" height="2" fill="black"/>
<circle cx="17" cy="47" r="4" fill="#F04234"/>
<circle cx="17" cy="30" r="4" fill="#F7BD00"/>
<circle cx="52" cy="39" r="4" fill="#0F457E"/>
<circle cx="88" cy="10" r="4" fill="#0789CD"/>
<circle cx="76" cy="10" r="4" fill="#F69215"/>
</svg>
